# Blender v2.91.0 OBJ File: 'sky.blend'
# www.blender.org
mtllib sky.mtl
o Cylinder
v -0.000000 -5.128670 -4.226655
v -0.000000 5.128670 -4.226655
v 0.824580 -5.128670 -4.145442
v 0.824580 5.128670 -4.145442
v 1.617471 -5.128670 -3.904921
v 1.617471 5.128670 -3.904921
v 2.348205 -5.128670 -3.514335
v 2.348205 5.128670 -3.514335
v 2.988697 -5.128670 -2.988697
v 2.988697 5.128670 -2.988697
v 3.514336 -5.128670 -2.348203
v 3.514336 5.128670 -2.348203
v 3.904922 -5.128670 -1.617471
v 3.904922 5.128670 -1.617471
v 4.145442 -5.128670 -0.824579
v 4.145442 5.128670 -0.824579
v 4.226656 -5.128670 0.000001
v 4.226656 5.128670 0.000001
v 4.145442 -5.128670 0.824580
v 4.145442 5.128670 0.824580
v 3.904922 -5.128670 1.617472
v 3.904922 5.128670 1.617472
v 3.514336 -5.128670 2.348206
v 3.514336 5.128670 2.348206
v 2.988697 -5.128670 2.988699
v 2.988697 5.128670 2.988699
v 2.348204 -5.128670 3.514338
v 2.348204 5.128670 3.514338
v 1.617471 -5.128670 3.904923
v 1.617471 5.128670 3.904923
v 0.824579 -5.128670 4.145444
v 0.824579 5.128670 4.145444
v -0.000002 -5.128670 4.226658
v -0.000002 5.128670 4.226658
v -0.824582 -5.128670 4.145443
v -0.824582 5.128670 4.145443
v -1.617474 -5.128670 3.904922
v -1.617474 5.128670 3.904922
v -2.348207 -5.128670 3.514336
v -2.348207 5.128670 3.514336
v -2.988700 -5.128670 2.988697
v -2.988700 5.128670 2.988697
v -3.514338 -5.128670 2.348203
v -3.514338 5.128670 2.348203
v -3.904923 -5.128670 1.617469
v -3.904923 5.128670 1.617469
v -4.145444 -5.128670 0.824577
v -4.145444 5.128670 0.824577
v -4.226657 -5.128670 -0.000003
v -4.226657 5.128670 -0.000003
v -4.145442 -5.128670 -0.824583
v -4.145442 5.128670 -0.824583
v -3.904920 -5.128670 -1.617475
v -3.904920 5.128670 -1.617475
v -3.514334 -5.128670 -2.348208
v -3.514334 5.128670 -2.348208
v -2.988694 -5.128670 -2.988700
v -2.988694 5.128670 -2.988700
v -2.348200 -5.128670 -3.514339
v -2.348200 5.128670 -3.514339
v -1.617466 -5.128670 -3.904923
v -1.617466 5.128670 -3.904923
v -0.824574 -5.128670 -4.145443
v -0.824574 5.128670 -4.145443
vt 0.854411 0.076412
vt 0.885727 0.076411
vt 0.885728 0.993584
vt 0.854412 0.993584
vt 0.917043 0.076411
vt 0.917044 0.993584
vt 0.948359 0.076411
vt 0.948360 0.993583
vt 0.979675 0.076411
vt 0.979676 0.993583
vt 1.010991 0.076411
vt 1.010992 0.993583
vt 0.008880 0.076410
vt 0.040196 0.076411
vt 0.040195 0.993584
vt 0.008879 0.993584
vt 0.071512 0.076411
vt 0.071512 0.993584
vt 0.102828 0.076411
vt 0.102827 0.993585
vt 0.134144 0.076411
vt 0.134144 0.993585
vt 0.165460 0.076412
vt 0.165460 0.993585
vt 0.196776 0.076412
vt 0.196776 0.993585
vt 0.228092 0.076412
vt 0.228092 0.993585
vt 0.259408 0.076412
vt 0.259408 0.993585
vt 0.290724 0.076412
vt 0.290724 0.993585
vt 0.322040 0.076412
vt 0.322040 0.993585
vt 0.353356 0.076412
vt 0.353356 0.993585
vt 0.384672 0.076413
vt 0.384672 0.993585
vt 0.415988 0.076413
vt 0.415988 0.993585
vt 0.447304 0.076413
vt 0.447304 0.993585
vt 0.478620 0.076413
vt 0.478620 0.993585
vt 0.509936 0.076413
vt 0.509936 0.993585
vt 0.541252 0.076413
vt 0.541252 0.993585
vt 0.572568 0.076413
vt 0.572568 0.993585
vt 0.603884 0.076412
vt 0.603884 0.993585
vt 0.635200 0.076412
vt 0.635200 0.993585
vt 0.666516 0.076412
vt 0.666516 0.993585
vt 0.697832 0.076412
vt 0.697832 0.993585
vt 0.729148 0.076412
vt 0.729148 0.993585
vt 0.760464 0.076412
vt 0.760464 0.993585
vt 0.791780 0.076412
vt 0.791780 0.993584
vt 0.823096 0.076412
vt 0.823096 0.993584
vn -0.0980 0.0000 0.9952
vn -0.2903 0.0000 0.9569
vn -0.4714 0.0000 0.8819
vn -0.6344 0.0000 0.7730
vn -0.7730 0.0000 0.6344
vn -0.8819 0.0000 0.4714
vn -0.9569 0.0000 0.2903
vn -0.9952 0.0000 0.0980
vn -0.9952 0.0000 -0.0980
vn -0.9569 0.0000 -0.2903
vn -0.8819 0.0000 -0.4714
vn -0.7730 0.0000 -0.6344
vn -0.6344 0.0000 -0.7730
vn -0.4714 0.0000 -0.8819
vn -0.2903 0.0000 -0.9569
vn -0.0980 0.0000 -0.9952
vn 0.0980 0.0000 -0.9952
vn 0.2903 0.0000 -0.9569
vn 0.4714 0.0000 -0.8819
vn 0.6344 0.0000 -0.7730
vn 0.7730 0.0000 -0.6344
vn 0.8819 0.0000 -0.4714
vn 0.9569 0.0000 -0.2903
vn 0.9952 0.0000 -0.0980
vn 0.9952 0.0000 0.0980
vn 0.9569 0.0000 0.2903
vn 0.8819 0.0000 0.4714
vn 0.7730 0.0000 0.6344
vn 0.6344 0.0000 0.7730
vn 0.4714 0.0000 0.8819
vn 0.2903 0.0000 0.9569
vn 0.0980 0.0000 0.9952
usemtl Material.001
s off
f 1/1/1 3/2/1 4/3/1 2/4/1
f 3/2/2 5/5/2 6/6/2 4/3/2
f 5/5/3 7/7/3 8/8/3 6/6/3
f 7/7/4 9/9/4 10/10/4 8/8/4
f 9/9/5 11/11/5 12/12/5 10/10/5
f 11/13/6 13/14/6 14/15/6 12/16/6
f 13/14/7 15/17/7 16/18/7 14/15/7
f 15/17/8 17/19/8 18/20/8 16/18/8
f 17/19/9 19/21/9 20/22/9 18/20/9
f 19/21/10 21/23/10 22/24/10 20/22/10
f 21/23/11 23/25/11 24/26/11 22/24/11
f 23/25/12 25/27/12 26/28/12 24/26/12
f 25/27/13 27/29/13 28/30/13 26/28/13
f 27/29/14 29/31/14 30/32/14 28/30/14
f 29/31/15 31/33/15 32/34/15 30/32/15
f 31/33/16 33/35/16 34/36/16 32/34/16
f 33/35/17 35/37/17 36/38/17 34/36/17
f 35/37/18 37/39/18 38/40/18 36/38/18
f 37/39/19 39/41/19 40/42/19 38/40/19
f 39/41/20 41/43/20 42/44/20 40/42/20
f 41/43/21 43/45/21 44/46/21 42/44/21
f 43/45/22 45/47/22 46/48/22 44/46/22
f 45/47/23 47/49/23 48/50/23 46/48/23
f 47/49/24 49/51/24 50/52/24 48/50/24
f 49/51/25 51/53/25 52/54/25 50/52/25
f 51/53/26 53/55/26 54/56/26 52/54/26
f 53/55/27 55/57/27 56/58/27 54/56/27
f 55/57/28 57/59/28 58/60/28 56/58/28
f 57/59/29 59/61/29 60/62/29 58/60/29
f 59/61/30 61/63/30 62/64/30 60/62/30
f 61/63/31 63/65/31 64/66/31 62/64/31
f 63/65/32 1/1/32 2/4/32 64/66/32
