# Blender v2.91.0 OBJ File: 'playerGODOT.blend'
# www.blender.org
v -0.046519 -0.009917 0.077318
v 0.333164 0.024205 0.242435
v -0.054803 -0.010419 -0.069354
v 0.325133 0.024160 -0.249460
v 0.173243 0.004355 0.170705
v 0.164632 0.004080 -0.177096
v 0.361410 0.006178 -0.005066
v 0.169020 0.004220 0.000139
v 0.359391 0.006166 -0.128738
v 0.363434 0.006189 0.118869
vt 0.538452 0.485156
vt 0.960490 0.486380
vt 0.960490 0.712178
vt 0.535173 0.808812
vt 0.119101 0.352468
vt 0.541607 0.173678
vt 0.960490 0.260102
vt 0.960490 0.995497
vt 0.960490 -0.003580
vt 0.106178 0.620513
vn -0.0104 0.9999 -0.0003
vn -0.0652 0.9979 0.0008
vn -0.0100 1.0000 -0.0003
vn -0.0506 0.9856 0.1613
vn -0.0522 0.9863 -0.1566
vn -0.0655 0.9979 0.0008
vn -0.0654 0.9979 0.0003
s off
f 8/1/1 7/2/1 9/3/1 6/4/1
f 1/5/2 5/6/2 8/1/2
f 5/6/3 10/7/3 7/2/3 8/1/3
f 6/4/4 9/3/4 4/8/4
f 10/7/5 5/6/5 2/9/5
f 3/10/6 8/1/6 6/4/6
f 1/5/7 8/1/7 3/10/7
