# Blender v2.91.0 OBJ File: 'gridBack.blend'
# www.blender.org
mtllib grass.mtl
o Plane.008
v -0.448537 0.530082 -0.727342
v -0.491561 0.022194 -0.727640
v -0.755847 0.037963 -0.767825
v -0.927598 -0.237076 -0.790451
v -1.324685 -0.187377 -0.851148
v -1.219797 0.065682 -0.838371
v -0.955805 0.049909 -0.798229
v -1.623482 -0.299660 -0.894989
v -1.590659 0.087812 -0.894762
v -1.396439 0.076205 -0.865229
v -1.007658 0.577496 -0.812530
v -1.545314 0.623090 -0.894447
v -0.527551 -0.402657 -0.727890
v -0.872596 1.016592 -0.124300
v -0.881994 0.559175 -0.127228
v -1.074492 0.556266 0.016698
v -1.187329 0.298996 0.095500
v -1.477674 0.317907 0.313090
v -1.412421 0.551193 0.269359
v -1.220136 0.554079 0.125592
v -1.689717 0.198147 0.469092
v -1.682547 0.547115 0.471325
v -1.541082 0.549235 0.365555
v -1.280447 1.023019 0.180914
v -1.672641 1.029199 0.474411
v -0.889856 0.176542 -0.129677
v -4.592807 1.203547 0.260858
v -4.604868 0.570214 0.256808
v -4.879911 0.566026 0.444138
v -5.040370 0.209724 0.546571
v -5.455288 0.235664 0.829795
v -5.362749 0.558719 0.772998
v -5.088009 0.562876 0.585873
v -5.757909 0.069670 1.032783
v -5.748708 0.552846 1.035873
v -5.546581 0.555900 0.898205
v -5.175588 1.212105 0.658125
v -5.735997 1.220334 1.040142
v -4.614956 0.040426 0.253419
v 1.374755 0.708805 0.321436
v 1.377183 0.194921 0.323544
v 1.111860 0.186791 0.274240
v 0.964931 -0.104954 0.247863
v 0.563961 -0.091054 0.173267
v 0.646086 0.172557 0.187687
v 0.911116 0.180656 0.236937
v 0.275620 -0.230893 0.120108
v 0.273767 0.161153 0.118500
v 0.468751 0.167109 0.154734
v 0.812184 0.705718 0.216850
v 0.271209 0.702749 0.116279
v 1.379214 -0.234946 0.325307
v 1.740704 0.982578 1.513121
v 1.746092 0.420239 1.519057
v 1.476636 0.409078 1.398345
v 1.329052 0.088557 1.334198
v 0.921687 0.100347 1.151525
v 1.003606 0.389528 1.186434
v 1.272765 0.400652 1.307013
v 0.629599 -0.055143 1.021571
v 0.625488 0.373870 1.017043
v 0.823510 0.382051 1.105753
v 1.169289 0.974400 1.257038
v 0.619810 0.966536 1.010787
v 1.750599 -0.050162 1.524022
v -3.314146 0.416957 0.350254
v -3.325823 -0.196220 0.346333
v -3.592113 -0.200275 0.527702
v -3.747465 -0.545238 0.626875
v -4.149179 -0.520123 0.901085
v -4.059585 -0.207349 0.846096
v -3.793588 -0.203324 0.664926
v -4.442169 -0.680833 1.097612
v -4.433260 -0.213035 1.100604
v -4.237566 -0.210078 0.967317
v -3.878380 0.425242 0.734878
v -4.420953 0.433210 1.104737
v -3.335591 -0.709146 0.343052
v 4.646909 1.268810 0.685345
v 4.651687 0.770211 0.690608
v 4.412774 0.760315 0.583578
v 4.281918 0.476125 0.526703
v 3.920728 0.486579 0.364735
v 3.993361 0.742981 0.395688
v 4.232011 0.752844 0.502599
v 3.661747 0.348713 0.249512
v 3.658103 0.729098 0.245497
v 3.833678 0.736352 0.324152
v 4.140264 1.261559 0.458290
v 3.653068 1.254586 0.239950
v 4.655683 0.353130 0.695011
v 8.163711 1.624775 -0.586710
v 8.043656 1.006155 -0.573470
v 7.736706 1.059784 -0.461389
v 7.498060 0.744018 -0.391348
v 7.040439 0.856557 -0.222693
v 7.197865 1.153973 -0.264632
v 7.504472 1.100378 -0.376589
v 6.675542 0.757282 -0.097252
v 6.767133 1.229232 -0.107353
v 6.992704 1.189797 -0.189720
v 7.516258 1.755502 -0.349455
v 6.893661 1.881211 -0.121308
v 7.943231 0.488677 -0.562393
v 3.788605 0.671645 -1.485518
v 3.821844 0.212004 -1.483232
v 3.588523 0.189433 -1.422630
v 3.476700 -0.080070 -1.387483
v 3.122505 -0.090754 -1.296042
v 3.178924 0.149841 -1.316243
v 3.411990 0.172368 -1.376778
v 2.876870 -0.232496 -1.229458
v 2.851511 0.118170 -1.231202
v 3.022979 0.134740 -1.275738
v 3.293030 0.636446 -1.357100
v 2.816479 0.602598 -1.233611
v 3.849650 -0.172489 -1.481320
v -0.679417 0.959358 1.541535
v -0.726583 0.402574 1.541209
v -1.016312 0.419861 1.497154
v -1.204599 0.118343 1.472350
v -1.639916 0.172827 1.405810
v -1.524929 0.450248 1.419817
v -1.235521 0.432957 1.463823
v -1.967479 0.049734 1.357748
v -1.931496 0.474510 1.357997
v -1.718577 0.461785 1.390372
v -1.292367 1.011337 1.448146
v -1.881786 1.061320 1.358342
v -0.766038 -0.063180 1.540935
vt 1.000000 0.000000
vt 1.000000 0.457823
vt 0.759544 0.463769
vt 0.625156 0.722964
vt 0.261878 0.708620
vt 0.337423 0.474173
vt 0.577614 0.468253
vt 0.000000 0.831791
vt 0.000000 0.482513
vt 0.176709 0.478161
vt 0.490215 0.000000
vt 0.000000 0.000000
vt 1.000000 0.840796
vt 1.000000 0.000000
vt 1.000000 0.457823
vt 0.759544 0.463769
vt 0.625156 0.722964
vt 0.261878 0.708620
vt 0.337423 0.474173
vt 0.577614 0.468253
vt 0.000000 0.831791
vt 0.000000 0.482513
vt 0.176709 0.478161
vt 0.490215 0.000000
vt 0.000000 0.000000
vt 1.000000 0.840796
vt 1.000000 0.000000
vt 1.000000 0.457823
vt 0.759544 0.463769
vt 0.625156 0.722964
vt 0.261878 0.708620
vt 0.337423 0.474173
vt 0.577614 0.468253
vt 0.000000 0.831791
vt 0.000000 0.482513
vt 0.176709 0.478161
vt 0.490215 0.000000
vt 0.000000 0.000000
vt 1.000000 0.840796
vt 1.000000 0.000000
vt 1.000000 0.457823
vt 0.759544 0.463769
vt 0.625156 0.722964
vt 0.261878 0.708620
vt 0.337423 0.474173
vt 0.577614 0.468253
vt 0.000000 0.831791
vt 0.000000 0.482513
vt 0.176709 0.478161
vt 0.490215 0.000000
vt 0.000000 0.000000
vt 1.000000 0.840796
vt 1.000000 0.000000
vt 1.000000 0.457823
vt 0.759544 0.463769
vt 0.625156 0.722964
vt 0.261878 0.708620
vt 0.337423 0.474173
vt 0.577614 0.468253
vt 0.000000 0.831791
vt 0.000000 0.482513
vt 0.176709 0.478161
vt 0.490215 0.000000
vt 0.000000 0.000000
vt 1.000000 0.840796
vt 1.000000 0.000000
vt 1.000000 0.457823
vt 0.759544 0.463769
vt 0.625156 0.722964
vt 0.261878 0.708620
vt 0.337423 0.474173
vt 0.577614 0.468253
vt 0.000000 0.831791
vt 0.000000 0.482513
vt 0.176709 0.478161
vt 0.490215 0.000000
vt 0.000000 0.000000
vt 1.000000 0.840796
vt 1.000000 0.000000
vt 1.000000 0.457823
vt 0.759544 0.463769
vt 0.625156 0.722964
vt 0.261878 0.708620
vt 0.337423 0.474173
vt 0.577614 0.468253
vt 0.000000 0.831791
vt 0.000000 0.482513
vt 0.176709 0.478161
vt 0.490215 0.000000
vt 0.000000 0.000000
vt 1.000000 0.840796
vt 1.000000 0.000000
vt 1.000000 0.457823
vt 0.759544 0.463769
vt 0.625156 0.722964
vt 0.261878 0.708620
vt 0.337423 0.474173
vt 0.577614 0.468253
vt 0.000000 0.831791
vt 0.000000 0.482513
vt 0.176709 0.478161
vt 0.490215 0.000000
vt 0.000000 0.000000
vt 1.000000 0.840796
vt 1.000000 0.000000
vt 1.000000 0.457823
vt 0.759544 0.463769
vt 0.625156 0.722964
vt 0.261878 0.708620
vt 0.337423 0.474173
vt 0.577614 0.468253
vt 0.000000 0.831791
vt 0.000000 0.482513
vt 0.176709 0.478161
vt 0.490215 0.000000
vt 0.000000 0.000000
vt 1.000000 0.840796
vt 1.000000 0.000000
vt 1.000000 0.457823
vt 0.759544 0.463769
vt 0.625156 0.722964
vt 0.261878 0.708620
vt 0.337423 0.474173
vt 0.577614 0.468253
vt 0.000000 0.831791
vt 0.000000 0.482513
vt 0.176709 0.478161
vt 0.490215 0.000000
vt 0.000000 0.000000
vt 1.000000 0.840796
vn 0.1496 -0.0121 -0.9887
vn -0.5989 0.0174 -0.8006
vn -0.5630 0.0160 -0.8263
vn 0.1828 -0.0032 -0.9831
vn 0.4090 -0.0057 -0.9125
vn -0.3357 0.0450 -0.9409
vn -0.2493 -0.0228 -0.9682
usemtl None
s 1
f 1/1/1 2/2/1 3/3/1
f 4/4/1 5/5/1 6/6/1 7/7/1
f 5/5/1 8/8/1 9/9/1 10/10/1
f 7/7/1 6/6/1 11/11/1
f 10/10/1 9/9/1 12/12/1
f 3/3/1 2/2/1 13/13/1 4/4/1
f 14/14/2 15/15/2 16/16/2
f 17/17/2 18/18/2 19/19/2 20/20/2
f 18/18/2 21/21/2 22/22/2 23/23/2
f 20/20/2 19/19/2 24/24/2
f 23/23/2 22/22/2 25/25/2
f 16/16/2 15/15/2 26/26/2 17/17/2
f 27/27/3 28/28/3 29/29/3
f 30/30/3 31/31/3 32/32/3 33/33/3
f 31/31/3 34/34/3 35/35/3 36/36/3
f 33/33/3 32/32/3 37/37/3
f 36/36/3 35/35/3 38/38/3
f 29/29/3 28/28/3 39/39/3 30/30/3
f 40/40/4 41/41/4 42/42/4
f 43/43/4 44/44/4 45/45/4 46/46/4
f 44/44/4 47/47/4 48/48/4 49/49/4
f 46/46/4 45/45/4 50/50/4
f 49/49/4 48/48/4 51/51/4
f 42/42/4 41/41/4 52/52/4 43/43/4
f 53/53/5 54/54/5 55/55/5
f 56/56/5 57/57/5 58/58/5 59/59/5
f 57/57/5 60/60/5 61/61/5 62/62/5
f 59/59/5 58/58/5 63/63/5
f 62/62/5 61/61/5 64/64/5
f 55/55/5 54/54/5 65/65/5 56/56/5
f 66/66/3 67/67/3 68/68/3
f 69/69/3 70/70/3 71/71/3 72/72/3
f 70/70/3 73/73/3 74/74/3 75/75/3
f 72/72/3 71/71/3 76/76/3
f 75/75/3 74/74/3 77/77/3
f 68/68/3 67/67/3 78/78/3 69/69/3
f 79/79/5 80/80/5 81/81/5
f 82/82/5 83/83/5 84/84/5 85/85/5
f 83/83/5 86/86/5 87/87/5 88/88/5
f 85/85/5 84/84/5 89/89/5
f 88/88/5 87/87/5 90/90/5
f 81/81/5 80/80/5 91/91/5 82/82/5
f 92/92/6 93/93/6 94/94/6
f 95/95/6 96/96/6 97/97/6 98/98/6
f 96/96/6 99/99/6 100/100/6 101/101/6
f 98/98/6 97/97/6 102/102/6
f 101/101/6 100/100/6 103/103/6
f 94/94/6 93/93/6 104/104/6 95/95/6
f 105/105/7 106/106/7 107/107/7
f 108/108/7 109/109/7 110/110/7 111/111/7
f 109/109/7 112/112/7 113/113/7 114/114/7
f 111/111/7 110/110/7 115/115/7
f 114/114/7 113/113/7 116/116/7
f 107/107/7 106/106/7 117/117/7 108/108/7
f 118/118/1 119/119/1 120/120/1
f 121/121/1 122/122/1 123/123/1 124/124/1
f 122/122/1 125/125/1 126/126/1 127/127/1
f 124/124/1 123/123/1 128/128/1
f 127/127/1 126/126/1 129/129/1
f 120/120/1 119/119/1 130/130/1 121/121/1
